<?xml version="1.0" encoding="UTF-8" standalone="no"?>
<svg width="400px" height="340px" viewBox="0 0 400 340" version="1.1" xmlns="http://www.w3.org/2000/svg" xmlns:xlink="http://www.w3.org/1999/xlink" xmlns:sketch="http://www.bohemiancoding.com/sketch/ns">
    <!-- Generator: Sketch 3.1.1 (8761) - http://www.bohemiancoding.com/sketch -->
    <title>bjab-logo-color</title>
    <desc>Created with Sketch.</desc>
    <defs></defs>
    <g id="Final-Logos" stroke="none" stroke-width="1" fill="none" fill-rule="evenodd" sketch:type="MSPage">
        <g id="bjab-logo-color" sketch:type="MSArtboardGroup">
            <g id="BJAB-Logo---Color" sketch:type="MSLayerGroup" transform="translate(-2.000000, 2.000000)">
                <path d="M201.190519,331.71573 C200.663255,331.71573 200.13217,331.608764 199.639292,331.387191 C196.406934,329.954607 121.076934,296.122697 87.1218868,247.537079 C85.9833019,247.73191 84.8714623,247.922921 83.7901887,248.117753 L83.7901887,253.103146 C83.7901887,254.967416 82.4491038,256.556629 80.6113208,256.869888 C47.8903774,262.424494 23.0249057,276.192584 22.7765566,276.330112 C22.1919811,276.658652 21.5500943,276.819101 20.9082075,276.819101 C20.0714623,276.819101 19.234717,276.544045 18.5469811,276.001573 C17.3358019,275.046517 16.8161792,273.457303 17.2288208,271.971236 L29.2565566,228.909663 L5.40740566,211.286966 C4.45985849,210.587865 3.89056604,209.491461 3.86,208.314831 C3.82943396,207.138202 4.34141509,206.015056 5.25075472,205.266292 C5.90028302,204.731461 20.8623585,192.575506 45.3992453,185.985618 L45.3992453,180.518876 C45.3992453,179.05573 46.2283491,177.726292 47.5426887,177.084494 C47.833066,176.943146 54.4773585,173.753258 70.8875,170.139326 L70.8875,7.25258427 C70.8875,5.14382022 72.5991981,3.43235955 74.7082547,3.43235955 L327.661321,3.43235955 C329.770377,3.43235955 331.482075,5.14382022 331.482075,7.25258427 L331.482075,170.139326 C347.892217,173.753258 354.54033,176.943146 354.826887,177.084494 C356.141226,177.726292 356.97033,179.05573 356.97033,180.518876 L356.97033,185.84809 C381.793774,192.407416 396.950708,204.72382 397.607877,205.266292 C398.517217,206.015056 399.029198,207.138202 398.998632,208.314831 C398.968066,209.491461 398.394953,210.587865 397.451226,211.286966 L373.605896,228.909663 L385.625991,271.971236 C386.042453,273.457303 385.52283,275.046517 384.311651,275.997753 C383.623915,276.540225 382.78717,276.819101 381.946604,276.819101 C381.304717,276.819101 380.666651,276.658652 380.082075,276.333933 C379.837547,276.192584 354.89566,262.413034 322.251132,256.869888 C320.413349,256.556629 319.072264,254.967416 319.072264,253.103146 L319.072264,248.201798 C318.23934,248.052809 317.391132,247.9 316.52,247.751011 C283.191557,298.602022 205.932075,330.107416 202.61566,331.440674 C202.15717,331.624045 201.671934,331.71573 201.190519,331.71573" id="Fill-1" fill="#284668" sketch:type="MSShapeGroup"></path>
                <path d="M327.661321,7.25258427 L327.661321,173.226067 C346.046792,177.050112 353.149575,180.518876 353.149575,180.518876 L353.149575,188.827865 C379.153632,195.016629 395.177877,208.215506 395.177877,208.215506 L369.21967,227.400674 L381.946604,272.998876 C381.946604,272.998876 356.634104,258.833483 322.893019,253.103146 L322.893019,245.027191 C320.333113,244.538202 317.601274,244.049213 314.666934,243.564045 C282.431226,295.228764 201.190519,327.895506 201.190519,327.895506 C201.190519,327.895506 121.902217,292.703596 88.8985377,243.369213 C85.7082075,243.888764 82.7356604,244.412135 79.969434,244.935506 L79.969434,253.103146 C46.2207075,258.833483 20.9082075,272.998876 20.9082075,272.998876 L33.642783,227.400674 L7.68075472,208.215506 C7.68075472,208.215506 23.5063208,195.184719 49.22,188.950112 L49.22,180.518876 C49.22,180.518876 56.322783,177.050112 74.7082547,173.226067 L74.7082547,7.25258427 L327.661321,7.25258427 M327.661321,-0.387865169 L74.7082547,-0.387865169 C70.4901415,-0.387865169 67.0667453,3.03505618 67.0667453,7.25258427 L67.0667453,167.086966 C52.6854245,170.441124 46.5875,173.302472 45.8653774,173.650112 C43.2405189,174.933708 41.5784906,177.600225 41.5784906,180.518876 L41.5784906,183.093708 C17.9165566,190.042697 3.47028302,201.782247 2.82457547,202.317079 C1.00207547,203.814607 -0.0218867925,206.060899 0.039245283,208.414157 C0.100377358,210.767416 1.24278302,212.960225 3.13787736,214.358427 L24.8665094,230.418652 L13.549434,270.943596 C12.7203302,273.91573 13.7595755,277.097978 16.1857547,279.00427 C17.5612264,280.085393 19.2308962,280.639326 20.9120283,280.639326 C22.1919811,280.639326 23.4757547,280.318427 24.6410849,279.665169 C24.8779717,279.531461 49.3155189,266.057528 81.2493868,260.636629 C84.455,260.090337 86.9117453,257.599551 87.4848585,254.497528 C123.43816,301.371685 194.92066,333.473034 198.088066,334.882697 C199.077642,335.318202 200.13217,335.535955 201.190519,335.535955 C202.15717,335.535955 203.127642,335.356404 204.040802,334.985843 C207.276981,333.683146 279.909528,304.068764 315.683255,255.635955 C316.581132,258.195506 318.808632,260.159101 321.613066,260.636629 C353.543113,266.057528 377.98066,279.531461 378.221368,279.668989 C379.386698,280.314607 380.670472,280.635506 381.946604,280.635506 C383.627736,280.635506 385.301226,280.081573 386.676698,279.000449 C389.099057,277.090337 390.138302,273.91573 389.309198,270.943596 L377.992123,230.418652 L399.720755,214.358427 C401.615849,212.960225 402.758255,210.767416 402.815566,208.417978 C402.880519,206.064719 401.856557,203.814607 400.037877,202.317079 C399.380708,201.774607 384.739575,189.878427 360.791085,182.944719 L360.791085,180.518876 C360.791085,177.600225 359.129057,174.933708 356.504198,173.653933 C355.785896,173.302472 349.687972,170.441124 335.30283,167.086966 L335.30283,7.25258427 C335.30283,3.03505618 331.879434,-0.387865169 327.661321,-0.387865169" id="Fill-2" fill="#FFFFFF" sketch:type="MSShapeGroup"></path>
                <path d="M201.224906,325.813483 C190.87066,321.057303 76.6186321,267.024045 76.6186321,201.969438 L76.6186321,9.16269663 L325.750943,9.16269663 L325.750943,201.969438 C325.750943,271.990337 211.636462,321.454607 201.224906,325.813483" id="Fill-3" fill="#E0B637" sketch:type="MSShapeGroup"></path>
                <path d="M323.840566,11.072809 L323.840566,201.969438 C323.840566,269.32764 215.357877,317.726067 201.259292,323.72764 C187.214198,317.195056 78.5290094,264.571461 78.5290094,201.969438 L78.5290094,11.072809 L323.840566,11.072809 M327.661321,7.25258427 L74.7082547,7.25258427 L74.7082547,201.969438 C74.7082547,271.810787 201.190519,327.895506 201.190519,327.895506 C201.190519,327.895506 327.661321,277.101798 327.661321,201.969438 L327.661321,7.25258427" id="Fill-4" fill="#BB9233" sketch:type="MSShapeGroup"></path>
                <path d="M52.9070283,181.806292 L51.0768868,188.491685 C24.2513679,194.52764 7.68075472,208.215506 7.68075472,208.215506 L33.642783,227.400674 L20.9082075,272.998876 C20.9082075,272.998876 46.2207075,258.833483 79.969434,253.103146 L79.969434,237.822247" id="Fill-5" fill="#1A2B3A" sketch:type="MSShapeGroup"></path>
                <path d="M349.951604,181.806292 L351.785566,188.491685 C378.607264,194.52764 395.177877,208.215506 395.177877,208.215506 L369.21967,227.400674 L381.946604,272.998876 C381.946604,272.998876 356.634104,258.833483 322.893019,253.103146 L322.893019,237.822247" id="Fill-6" fill="#1A2B3A" sketch:type="MSShapeGroup"></path>
                <path d="M353.149575,180.518876 C353.149575,180.518876 318.128538,163.327865 201.186698,163.327865 C84.2410377,163.327865 49.22,180.518876 49.22,180.518876 L49.22,253.103146 C49.22,253.103146 86.6022642,235.912135 201.186698,235.912135 C315.763491,235.912135 353.149575,253.103146 353.149575,253.103146 L353.149575,180.518876" id="Fill-7" fill="#284668" sketch:type="MSShapeGroup"></path>
                <path d="M118.635472,109.741573 L94.1062264,109.741573 L94.205566,108.736854 L95.4129245,108.736854 C97.1513679,108.736854 98.645283,108.133258 99.8832075,106.926067 C101.124953,105.718876 101.778302,104.24809 101.847075,102.502247 L101.847075,46.6238202 C101.847075,44.8817978 101.209009,43.407191 99.9366981,42.2038202 C98.660566,40.992809 97.1513679,40.3930337 95.4129245,40.3930337 L94.205566,40.3930337 L94.1062264,39.3883146 L114.107877,39.3883146 C121.011981,39.3883146 126.3725,40.9125843 130.193255,43.9611236 C134.010189,47.0134831 135.920566,51.0820225 135.920566,56.1705618 C135.920566,60.1932584 134.850755,63.5283146 132.703491,66.1719101 C130.560047,68.8193258 127.946651,70.5766292 124.863302,71.4476404 C130.155047,72.2537079 134.346415,74.4274157 137.429764,77.9802247 C140.509292,81.5330337 142.049057,86.0065169 142.049057,91.4006742 C142.049057,96.7910112 139.98967,101.19573 135.870896,104.614831 C131.748302,108.030112 126.001887,109.741573 118.635472,109.741573 L118.635472,109.741573 Z M108.380566,106.12 L118.230472,106.12 L118.432972,106.12 C123.522217,106.12 127.476698,104.733258 130.292594,101.948315 C133.108491,99.1710112 134.514528,95.2361798 134.514528,90.1438202 C134.514528,87.2633708 134.025472,84.734382 133.055,82.5530337 C132.084528,80.3793258 130.861887,78.6525843 129.387075,77.3804494 C125.497547,74.16 119.670896,72.5516854 111.899481,72.5516854 L111.796321,72.5516854 L111.796321,71.6501124 L112.751509,71.6501124 C113.320802,71.6501124 114.142264,71.5813483 115.215896,71.4476404 C116.285708,71.3139326 117.493066,71.0808989 118.83033,70.7485393 C120.171415,70.4123596 121.378774,69.8737079 122.452406,69.1402247 C123.522217,68.3991011 124.527075,67.5280899 125.466981,66.5233708 C127.407925,64.3114607 128.382217,61.0146067 128.382217,56.6251685 C128.382217,52.2357303 127.125189,48.8013483 124.611132,46.3220225 C122.100896,43.8426966 118.467358,42.6049438 113.710519,42.6049438 L108.380566,42.6049438 L108.380566,106.12 L108.380566,106.12 Z" id="Fill-8" fill="#132133" sketch:type="MSShapeGroup"></path>
                <path d="M173.715472,40.3930337 C171.300755,40.3930337 169.45533,41.4359551 168.183019,43.5103371 C167.648113,44.4501124 167.342453,45.5197753 167.281321,46.7231461 L167.281321,109.741573 C167.281321,115.368764 165.519953,120.124944 162.001038,124.010112 C158.485943,127.895281 154.145566,129.839775 148.987547,129.839775 L148.987547,128.934382 C152.269575,127.795955 155.051085,125.33573 157.332075,121.546067 C159.605425,117.764045 160.74783,113.726067 160.74783,109.435955 L160.74783,46.7231461 C160.679057,44.9811236 160.021887,43.4950562 158.783962,42.2534831 C157.546038,41.0119101 156.055943,40.3930337 154.313679,40.3930337 L153.006981,40.3930337 L153.006981,39.3883146 L175.018349,39.3883146 L175.018349,40.3930337 L173.715472,40.3930337" id="Fill-9" fill="#132133" sketch:type="MSShapeGroup"></path>
                <path d="M251.513679,108.736854 L252.316038,108.736854 L252.316038,109.741573 L229.700991,109.741573 L229.700991,108.736854 L230.602689,108.736854 C232.008726,108.736854 233.067075,108.282247 233.770094,107.376854 C234.473113,106.471461 234.828443,105.61573 234.828443,104.813483 C234.828443,104.011236 234.690896,103.208989 234.423443,102.402921 L227.993113,85.3188764 L200.850472,85.3188764 L194.114481,102.502247 C193.847028,103.308315 193.713302,104.095281 193.713302,104.863146 C193.713302,105.634831 194.068632,106.471461 194.76783,107.376854 C195.47467,108.282247 196.529198,108.736854 197.935236,108.736854 L198.840755,108.736854 L198.840755,109.741573 L178.640425,109.741573 L178.640425,108.736854 L179.542123,108.736854 C181.215613,108.736854 182.858538,108.198202 184.467075,107.128539 C186.075613,106.058876 187.382311,104.481124 188.38717,102.402921 L211.105377,48.3314607 C213.581226,42.9029213 214.822972,39.4570787 214.822972,37.9786517 L215.728491,37.9786517 L242.664811,102.402921 C243.604717,104.481124 244.877028,106.058876 246.485566,107.128539 C248.094104,108.198202 249.767594,108.736854 251.513679,108.736854 L251.513679,108.736854 Z M202.05783,82.3047191 L226.781934,82.3047191 L214.723632,50.0429213 L202.05783,82.3047191 L202.05783,82.3047191 Z" id="Fill-10" fill="#132133" sketch:type="MSShapeGroup"></path>
                <path d="M281.667075,109.741573 L257.13783,109.741573 L257.240991,108.736854 L258.448349,108.736854 C260.186792,108.736854 261.680708,108.133258 262.918632,106.926067 C264.156557,105.718876 264.813726,104.24809 264.8825,102.502247 L264.8825,46.6238202 C264.8825,44.8817978 264.244434,43.407191 262.972123,42.2038202 C261.695991,40.992809 260.186792,40.3930337 258.448349,40.3930337 L257.240991,40.3930337 L257.13783,39.3883146 L277.143302,39.3883146 C284.043585,39.3883146 289.407925,40.9125843 293.228679,43.9611236 C297.045613,47.0134831 298.955991,51.0820225 298.955991,56.1705618 C298.955991,60.1932584 297.886179,63.5283146 295.738915,66.1719101 C293.591651,68.8193258 290.982075,70.5766292 287.898726,71.4476404 C293.190472,72.2537079 297.38184,74.4274157 300.461368,77.9802247 C303.544717,81.5330337 305.084481,86.0065169 305.084481,91.4006742 C305.084481,96.7910112 303.025094,101.19573 298.906321,104.614831 C294.783726,108.030112 289.037311,109.741573 281.667075,109.741573 L281.667075,109.741573 Z M271.415991,106.12 L281.265896,106.12 L281.468396,106.12 C286.557642,106.12 290.512123,104.733258 293.328019,101.948315 C296.143915,99.1710112 297.549953,95.2361798 297.549953,90.1438202 C297.549953,87.2633708 297.060896,84.734382 296.090425,82.5530337 C295.119953,80.3793258 293.897311,78.6525843 292.4225,77.3804494 C288.532972,74.16 282.706321,72.5516854 274.934906,72.5516854 L274.831745,72.5516854 L274.831745,71.6501124 L275.786934,71.6501124 C276.356226,71.6501124 277.177689,71.5813483 278.251321,71.4476404 C279.321132,71.3139326 280.528491,71.0808989 281.865755,70.7485393 C283.20684,70.4123596 284.414198,69.8737079 285.484009,69.1402247 C286.557642,68.3991011 287.5625,67.5280899 288.502406,66.5233708 C290.443349,64.3114607 291.417642,61.0146067 291.417642,56.6251685 C291.417642,52.2357303 290.160613,48.8013483 287.646557,46.3220225 C285.136321,43.8426966 281.502783,42.6049438 276.742123,42.6049438 L271.415991,42.6049438 L271.415991,106.12 L271.415991,106.12 Z" id="Fill-11" fill="#132133" sketch:type="MSShapeGroup"></path>
                <path d="M81.9982547,194.997528 C83.1139151,194.85236 85.031934,194.550562 87.7484906,194.103596 C90.4650472,193.656629 93.7317925,192.999551 93.9533962,193.186742 C94.0259906,193.247865 94.0221698,194.065393 94.0985849,194.718652 C94.1482547,195.161798 94.2361321,195.803596 94.362217,196.636404 C94.4883019,197.469213 94.6946226,198.275281 94.6220283,198.515955 C94.5914623,198.630562 94.2705189,198.756629 93.9151887,198.798652 C93.5904245,198.836854 93.4223113,198.760449 93.395566,198.584719 C93.1854245,197.163596 92.6734434,196.239101 92.0009906,195.925843 C91.3285377,195.608764 90.3083962,195.53236 88.9482075,195.700449 C88.0656132,195.811236 87.6185849,195.864719 86.7359906,195.979326 C84.8026887,196.22382 83.7825472,196.529438 83.6946698,196.884719 C83.4921698,197.702247 83.3660849,198.615281 83.3049528,199.604719 C83.1444811,202.416404 83.0642453,203.818427 82.9075943,206.630112 C82.9190566,206.710337 82.9610849,206.76382 83.0336792,206.794382 C83.1062736,206.824944 83.224717,206.836404 83.3890094,206.828764 C83.5533019,206.821124 83.7099528,206.813483 83.8742453,206.805843 C84.0385377,206.798202 84.2295755,206.779101 84.4473585,206.75236 C85.1733019,206.656854 85.5362736,206.607191 86.262217,206.515506 C88.0426887,206.286292 89.127783,206.026517 89.5289623,205.720899 C89.9263208,205.419101 90.358066,204.55191 90.8127358,203.115506 C90.8700472,202.924494 91.0458019,202.806067 91.3438208,202.771685 C91.6647642,202.729663 91.8787264,202.771685 91.9742453,202.890112 C91.7411792,205.973034 91.6265566,207.516404 91.4049528,210.603146 C91.2597642,210.729213 91.0725472,210.801798 90.8585849,210.828539 C90.5108962,210.870562 90.3007547,210.790337 90.2625472,210.587865 C90.1211792,209.923146 90.0218396,209.365393 89.8995755,209.021573 C89.7734906,208.677753 89.6856132,208.475281 89.6397642,208.417978 C89.5900943,208.356854 89.4945755,208.276629 89.345566,208.188764 C89.0513679,208.013034 87.7332075,208.074157 85.3949057,208.375955 C83.6220755,208.605169 82.7241981,208.845843 82.7012736,209.090337 C82.5408019,211.470337 82.4643868,212.658427 82.3115566,215.042247 C82.2045755,216.463371 82.212217,217.620899 82.3306604,218.511011 C82.3841509,218.900674 82.5178774,219.122247 82.7433019,219.17191 C82.9649057,219.221573 83.6793868,219.16809 84.875283,219.00764 C85.5897642,218.915955 85.9489151,218.866292 86.6633962,218.770787 C88.9787736,218.468989 90.5567453,218.052584 91.4087736,217.494831 C91.8061321,217.235056 92.2416981,216.707865 92.726934,215.917079 C93.2121698,215.126292 93.6477358,214.201798 94.0374528,213.147416 C94.0985849,212.979326 94.2858019,212.88 94.6067453,212.841798 C95.0652358,212.788315 95.4664151,212.88764 95.4816981,212.975506 C95.7911792,214.813034 93.2809434,219.622697 92.9943868,219.886292 C92.5588208,220.287416 89.3990566,220.287416 86.4303302,220.596854 C83.4616038,220.902472 81.4518868,221.135506 80.3935377,221.280674 C78.6398113,221.601573 77.757217,221.765843 76.0073113,222.094382 C75.9729245,222.06764 75.9538208,221.972135 75.9270755,221.788764 C75.8544811,221.295955 75.8850472,221.03236 76.0187736,221.013258 C76.3091509,220.971236 76.7829245,220.803146 77.4439151,220.497528 C78.1049057,220.19191 78.4716981,219.909213 78.5481132,219.664719 C78.7964623,218.866292 78.9989623,217.590337 79.0830189,215.878876 C79.4345283,209.892584 79.6141038,206.908989 80,200.922697 C80.1031604,199.024045 80.0955189,197.774831 79.9579717,197.220899 C79.9083019,197.018427 79.564434,196.846517 78.9378302,196.716629 C78.3074057,196.586742 77.8450943,196.55236 77.5470755,196.590562 C77.4935849,196.598202 77.4630189,196.544719 77.4477358,196.441573 C77.3904245,196.025169 77.4668396,195.574382 77.6082075,195.497978 C78.2883019,195.135056 80.3324057,195.219101 81.9982547,194.997528" id="Fill-12" fill="#FFFFFF" sketch:type="MSShapeGroup"></path>
                <path d="M108.09783,200.720225 C108.774104,200.64764 108.835236,200.64382 108.296509,200.701124 C108.426415,200.685843 108.491368,200.674382 108.621274,200.659101 C108.835236,198.271461 108.942217,197.079551 109.163821,194.69191 C109.20967,194.317528 109.20967,193.943146 109.171462,193.576404 C109.121792,193.075955 108.265943,192.915506 106.600094,193.087416 C106.519858,193.098876 106.466368,193.022472 106.451085,192.865843 C106.416698,192.552584 106.523679,192.14382 106.695613,192.044494 C107.788349,191.406517 110.917547,190.386517 111.876557,190.405618 C111.987358,190.409438 112.159292,190.741798 112.1975,191.135281 C112.067594,192.338652 112.006462,192.934607 111.876557,194.137978 C111.093302,201.915955 110.715047,205.808764 109.996745,213.586742 C109.947075,213.90764 109.943255,214.24764 109.977642,214.58764 C110.042594,215.240899 110.210708,215.554157 110.47816,215.523596 C110.638632,215.508315 110.822028,215.420449 111.03217,215.25236 C111.246132,215.08809 111.456274,214.885618 111.658774,214.652584 C111.865094,214.419551 112.048491,214.194157 112.216604,213.976404 C112.384717,213.758652 112.541368,213.56764 112.686557,213.39191 C112.770613,213.273483 112.816462,213.21618 112.900519,213.097753 C112.954009,213.090112 113.064811,213.200899 113.236745,213.437753 C113.404858,213.670787 113.523302,213.873258 113.51184,213.949663 C113.427783,214.438652 112.575755,215.386067 111.578538,216.44427 C110.585142,217.494831 109.675802,218.075506 108.850519,218.159551 C108.426415,218.205393 108.074906,218.044944 107.795991,217.693483 C107.513255,217.338202 107.341321,216.860674 107.276368,216.260899 C107.23434,215.840674 107.230519,215.103371 107.341321,214.148315 C107.368066,213.938202 107.394811,213.751011 107.406274,213.602022 C107.417736,213.456854 107.429198,213.349888 107.448302,213.281124 C107.467406,213.21236 107.467406,213.059551 107.467406,213.059551 C107.444481,213.05573 106.844623,214.373708 106.447264,215.076629 C106.053726,215.783371 105.453868,216.555056 104.659151,217.414607 C103.864434,218.266517 103.107925,218.740225 102.393443,218.820449 C101.170802,218.957978 100.173585,218.545393 99.3865094,217.586517 C98.6032547,216.631461 98.1256604,215.420449 97.9537264,213.953483 C97.6251415,211.130337 98.5421226,208.28809 100.731415,205.430562 C102.920708,202.573034 105.388915,200.999101 108.09783,200.720225 L108.09783,200.720225 Z M108.193349,204.441124 C108.24684,203.933034 108.1475,203.501348 107.891509,203.142247 C107.63934,202.786966 107.249623,202.637978 106.733821,202.691461 C105.087075,202.863371 103.619906,204.03618 102.347594,206.202247 C101.075283,208.372135 100.574764,210.580225 100.830755,212.830337 C101.117311,215.370787 101.934953,216.555056 103.291321,216.406067 C104.277075,216.299101 105.255189,215.229438 106.22566,213.177978 C107.192311,211.126517 107.780708,209.075056 107.979387,207.042697 C108.063443,205.999775 108.105472,205.484045 108.193349,204.441124 L108.193349,204.441124 Z" id="Fill-13" fill="#FFFFFF" sketch:type="MSShapeGroup"></path>
                <path d="M120.125566,199.551236 C120.557311,199.509213 120.916462,199.669663 121.191557,200.032584 C121.470472,200.391685 121.630943,200.869213 121.684434,201.472809 C121.749387,202.183371 121.730283,202.886292 121.630943,203.585393 C121.294717,206.232809 121.134245,207.550787 120.80566,210.202022 C120.687217,210.977528 120.649009,211.69191 120.710142,212.348989 C120.813302,213.479775 121.122783,214.018427 121.630943,213.972584 C122.001557,213.938202 122.502075,213.586742 123.143962,212.906742 C123.785849,212.230562 124.45066,211.363371 125.130755,210.312809 C125.810849,209.262247 126.429811,208.001573 126.995283,206.526966 C127.564575,205.05236 127.927547,203.608315 128.084198,202.194831 C128.259953,200.941798 128.344009,200.319101 128.523585,199.069888 C128.867453,198.93618 129.287736,198.848315 129.776792,198.806292 C130.265849,198.76809 130.731981,198.787191 131.171368,198.855955 C130.563868,204.024719 130.262028,206.611011 129.677453,211.779775 C129.620142,212.100674 129.604858,212.436854 129.631604,212.776854 C129.685094,213.433933 129.849387,213.751011 130.113019,213.72809 C130.273491,213.712809 130.464528,213.624944 130.678491,213.460674 C130.892453,213.300225 131.106415,213.105393 131.316557,212.87618 C131.526698,212.650787 131.721557,212.429213 131.893491,212.215281 C132.061604,212.005169 132.218255,211.810337 132.367264,211.638427 C132.455142,211.52382 132.500991,211.466517 132.588868,211.35191 C132.642358,211.34809 132.75316,211.462697 132.921274,211.699551 C133.085566,211.936404 133.200189,212.142697 133.184906,212.215281 C133.089387,212.70427 132.214434,213.636404 131.198113,214.667865 C130.174151,215.699326 129.260991,216.253258 128.435708,216.322022 C128.011604,216.360225 127.660094,216.188315 127.388821,215.829213 C127.121368,215.470112 126.957075,214.996404 126.907406,214.392809 C126.869198,213.972584 126.903585,213.262022 127.006745,212.276404 C127.174858,210.801798 127.262736,210.068315 127.430849,208.593708 C127.205425,209.117079 126.72783,209.976629 125.990425,211.17618 C125.25684,212.37573 124.313113,213.632584 123.166887,214.950562 C122.02066,216.268539 121.054009,216.96764 120.255472,217.040225 C118.925849,217.162472 118.180802,216.352584 118.016509,214.622022 C117.905708,213.418652 117.955377,211.974607 118.17316,210.286067 C118.452075,208.051236 118.593443,206.93573 118.876179,204.700899 C118.922028,203.745843 118.944953,203.218652 118.937311,203.111685 C118.876179,202.454607 118.708066,202.141348 118.436792,202.16427 C118.325991,202.17573 118.192264,202.252135 118.012689,202.385843 C117.833113,202.523371 117.653538,202.68764 117.466321,202.890112 C117.279104,203.092584 117.110991,203.279775 116.965802,203.451685 C116.816792,203.627416 116.587547,204.101124 116.385047,204.219551 C116.358302,204.234831 116.220755,204.116404 116.048821,203.879551 C115.873066,203.642697 115.758443,203.440225 115.773726,203.36382 C115.853962,202.920674 116.656321,202.053483 117.619151,201.090787 C118.581981,200.12809 119.418726,199.61236 120.125566,199.551236" id="Fill-14" fill="#FFFFFF" sketch:type="MSShapeGroup"></path>
                <path d="M143.401604,197.74427 C144.677736,197.664045 146.465849,198.08427 147.031321,198.867416 C147.165047,199.046966 147.187972,199.432809 147.199434,199.646742 C147.23,200.143371 147.12684,200.555955 146.889953,200.888315 C146.653066,201.220674 146.31684,201.404045 145.881274,201.430787 C145.449528,201.457528 144.979575,201.117528 144.471415,200.410787 C143.963255,199.704045 143.48184,199.364045 143.019528,199.394607 C141.854198,199.471011 140.70033,200.46809 139.573208,202.382022 C138.442264,204.292135 137.972311,206.469663 138.144245,208.914607 C138.342925,211.699551 139.324858,213.032809 141.090047,212.910562 C141.304009,212.895281 141.51033,212.853258 141.709009,212.788315 C141.903868,212.723371 142.083443,212.643146 142.26684,212.555281 C142.450236,212.459775 142.633632,212.36427 142.817028,212.257303 C142.996604,212.154157 143.160896,212.03191 143.313726,211.890562 C143.462736,211.745393 143.611745,211.619326 143.753113,211.504719 C143.89066,211.390112 144.016745,211.267865 144.127547,211.141798 C144.24217,211.01573 144.333868,210.908764 144.395,210.824719 C144.456132,210.744494 144.505802,210.67191 144.555472,210.614607 C144.601321,210.564944 144.628066,210.542022 144.673915,210.49236 C144.727406,210.488539 144.834387,210.606966 144.998679,210.84764 C145.159151,211.088315 145.269953,211.290787 145.25467,211.367191 C145.143868,211.894382 144.223066,212.837978 143.160896,213.835056 C142.102547,214.828315 141.028915,215.366966 139.94,215.443371 C138.553066,215.538876 137.456509,215.08427 136.642689,214.07191 C135.828868,213.063371 135.351274,211.626966 135.213726,209.762697 C135.026509,207.241348 135.813585,204.635955 137.605519,201.961798 C139.397453,199.28382 141.338396,197.877978 143.401604,197.74427" id="Fill-15" fill="#FFFFFF" sketch:type="MSShapeGroup"></path>
                <path d="M159.215708,196.861798 C160.247311,196.812135 161.240708,196.938202 162.203538,197.23618 C161.431745,202.271236 161.057311,204.788764 160.312264,209.82382 C160.247311,210.144719 160.220566,210.477079 160.23967,210.817079 C160.270236,211.474157 160.415425,211.795056 160.682877,211.783596 C160.843349,211.775955 161.034387,211.69191 161.255991,211.539101 C161.473774,211.382472 161.691557,211.199101 161.90934,210.977528 C162.127123,210.755955 162.333443,210.542022 162.509198,210.33573 C162.688774,210.129438 162.849245,209.946067 163.005896,209.777978 C163.097594,209.667191 163.139623,209.602247 163.231321,209.48764 C163.284811,209.48764 163.395613,209.613708 163.552264,209.854382 C163.708915,210.098876 163.815896,210.305169 163.796792,210.381573 C163.685991,210.862921 162.784292,211.764494 161.733585,212.761573 C160.679057,213.758652 159.742972,214.278202 158.913868,214.316404 C158.489764,214.339326 158.145896,214.163596 157.886085,213.796854 C157.626274,213.426292 157.488726,212.941124 157.45816,212.333708 C157.435236,211.886742 157.500189,211.18 157.633915,210.228764 C157.672123,209.938427 157.706509,209.701573 157.737075,209.529663 C157.771462,209.357753 157.786745,209.193483 157.786745,209.193483 C157.767642,209.189663 157.25566,210.179101 156.930896,210.683371 C156.606132,211.18764 156.193491,211.756854 155.692972,212.387191 C155.188632,213.017528 154.646085,213.540899 154.069151,213.953483 C153.488396,214.366067 152.930566,214.591461 152.39566,214.622022 C151.226509,214.686966 150.271321,214.220899 149.530094,213.22 C148.785047,212.226742 148.368585,210.988989 148.280708,209.518202 C148.169906,207.650112 148.632217,205.74 149.667642,203.791685 C150.703066,201.843371 152.097642,200.223596 153.851368,198.928539 C155.601274,197.633483 157.393208,196.945843 159.215708,196.861798 L159.215708,196.861798 Z M157.584245,198.756629 C155.98717,198.833034 154.485613,199.925618 153.098679,202.022921 C151.707925,204.116404 151.081321,206.278652 151.207406,208.513483 C151.352594,211.092135 152.112925,212.337528 153.476934,212.264944 C154.435943,212.211461 155.456085,211.195281 156.552642,209.216404 C157.645377,207.233708 158.356038,205.251011 158.665519,203.256854 C158.910047,201.633258 159.032311,200.81573 159.284481,199.192135 C158.940613,198.863596 158.371321,198.714607 157.584245,198.756629 L157.584245,198.756629 Z" id="Fill-16" fill="#FFFFFF" sketch:type="MSShapeGroup"></path>
                <path d="M170.677972,192.155281 C170.750566,191.891685 171.411557,191.738876 172.672406,191.696854 C172.99717,191.685393 173.245519,191.693034 173.409811,191.712135 C173.069764,193.794157 172.901651,194.833258 172.561604,196.915281 C174.044057,196.869438 174.785283,196.846517 176.267736,196.804494 C176.405283,196.800674 176.474057,196.968764 176.481698,197.312584 C176.49316,197.625843 176.382358,198.011685 176.153113,198.466292 C174.605708,198.512135 173.830094,198.542697 172.286509,198.59236 C171.568208,202.916854 171.212877,205.079101 170.513679,209.403596 C170.444906,209.720674 170.41434,210.053034 170.429623,210.396854 C170.452547,211.053933 170.593915,211.374831 170.861368,211.367191 C171.02184,211.359551 171.216698,211.279326 171.438302,211.126517 C171.659906,210.977528 171.881509,210.790337 172.099292,210.572584 C172.320896,210.351011 172.519575,210.144719 172.702972,209.938427 C172.882547,209.735955 173.054481,209.556404 173.211132,209.392135 C173.30283,209.277528 173.344858,209.220225 173.440377,209.109438 C173.493868,209.105618 173.600849,209.231685 173.7575,209.47236 C173.914151,209.716854 174.013491,209.923146 173.994387,209.99573 C173.875943,210.477079 172.966604,211.371011 171.904434,212.356629 C170.842264,213.342247 169.894717,213.854157 169.069434,213.884719 C168.641509,213.90382 168.305283,213.720449 168.053113,213.349888 C167.797123,212.975506 167.659575,212.490337 167.63283,211.882921 C167.617547,211.462697 167.6825,210.759775 167.83533,209.777978 C168.530708,205.338876 168.886038,203.119326 169.60434,198.680225 C168.450472,198.722247 167.877358,198.748989 166.723491,198.791011 C166.639434,198.794831 166.585943,198.649663 166.574481,198.359326 C166.563019,198.019326 166.712028,197.602921 167.021509,197.113933 C168.160094,197.06809 168.733208,197.048989 169.875613,197.010787 C170.196557,195.070112 170.353208,194.095955 170.677972,192.155281" id="Fill-17" fill="#FFFFFF" sketch:type="MSShapeGroup"></path>
                <path d="M181.96066,196.067191 C182.396226,196.059551 182.736274,196.239101 182.988443,196.613483 C183.244434,196.991685 183.370519,197.484494 183.381981,198.09191 C183.393443,198.645843 183.328491,199.344944 183.183302,200.193034 C182.545236,203.745843 182.231934,205.522247 181.60533,209.078876 C181.532736,209.395955 181.50217,209.724494 181.509811,210.068315 C181.525094,210.725393 181.666462,211.053933 181.933915,211.050112 C182.094387,211.046292 182.281604,210.969888 182.507028,210.820899 C182.728632,210.67191 182.957877,210.488539 183.179481,210.270787 C183.401085,210.053034 183.603585,209.842921 183.786981,209.640449 C183.970377,209.441798 184.142311,209.258427 184.302783,209.097978 C184.394481,208.983371 184.44033,208.929888 184.535849,208.819101 C184.585519,208.815281 184.6925,208.945169 184.84533,209.189663 C184.99816,209.437978 185.0975,209.640449 185.078396,209.716854 C184.956132,210.198202 184.039151,211.076854 182.961698,212.051011 C181.888066,213.025169 180.936698,213.517978 180.111415,213.537079 C179.683491,213.548539 179.343443,213.368989 179.095094,212.994607 C178.842925,212.620225 178.709198,212.123596 178.693915,211.52 C178.682453,211.095955 178.758868,210.400674 178.92316,209.422697 C179.496274,206.102921 179.779009,204.444944 180.363585,201.125169 C180.482028,200.30382 180.53934,199.776629 180.531698,199.539775 C180.516415,198.878876 180.375047,198.550337 180.103774,198.557978 C179.996792,198.557978 179.843962,198.626742 179.656745,198.748989 C179.469528,198.871236 179.278491,199.027865 179.079811,199.215056 C178.881132,199.406067 178.701557,199.585618 178.544906,199.746067 C178.384434,199.906517 178.243066,200.070787 178.10934,200.235056 C178.029104,200.330562 177.994717,200.380225 177.914481,200.47573 C177.860991,200.47573 177.754009,200.357303 177.597358,200.108989 C177.444528,199.860674 177.349009,199.654382 177.368113,199.581798 C177.475094,199.142472 178.338585,198.332584 179.362547,197.438652 C180.386509,196.540899 181.253821,196.086292 181.96066,196.067191 L181.96066,196.067191 Z M182.965519,187.708539 C183.37816,187.697079 183.725849,187.846067 184.020047,188.159326 C184.314245,188.468764 184.470896,188.835506 184.478538,189.25573 C184.49,189.886067 184.283679,190.44382 183.871038,190.925169 C183.454575,191.406517 182.938774,191.658652 182.308349,191.670112 C181.872783,191.681573 181.528915,191.524944 181.276745,191.200225 C181.020755,190.875506 180.887028,190.482022 180.879387,190.008315 C180.864104,189.400899 181.055142,188.866067 181.4525,188.40764 C181.853679,187.953034 182.36184,187.72 182.965519,187.708539 L182.965519,187.708539 Z" id="Fill-18" fill="#FFFFFF" sketch:type="MSShapeGroup"></path>
                <path d="M196.391651,195.860899 C197.996368,195.849438 199.245755,196.376629 200.13217,197.453933 C201.014764,198.535056 201.457972,200.021124 201.457972,201.919775 C201.461792,204.632135 200.479858,207.199326 198.550377,209.617528 C196.617075,212.039551 194.657028,213.258202 192.628208,213.281124 C191.031132,213.296404 189.797028,212.799775 188.945,211.783596 C188.089151,210.767416 187.642123,209.31573 187.607736,207.420899 C187.565708,204.681798 188.486509,202.068764 190.404528,199.593258 C192.322547,197.117753 194.328443,195.87236 196.391651,195.860899 L196.391651,195.860899 Z M195.917877,197.480674 C194.561509,197.488315 193.331226,198.535056 192.246132,200.613258 C191.157217,202.695281 190.633774,204.777303 190.660519,206.859326 C190.679623,208.387416 190.943255,209.567865 191.451415,210.408315 C191.955755,211.244944 192.578538,211.653708 193.327406,211.646067 C194.66467,211.630787 195.837642,210.595506 196.857783,208.521124 C197.877925,206.450562 198.389906,204.357079 198.382264,202.248315 C198.374623,200.693483 198.149198,199.509213 197.709811,198.695506 C197.270425,197.881798 196.678208,197.473034 195.917877,197.480674 L195.917877,197.480674 Z" id="Fill-19" fill="#FFFFFF" sketch:type="MSShapeGroup"></path>
                <path d="M208.786179,195.860899 C209.221745,195.864719 209.561792,196.05573 209.8025,196.437753 C210.043208,196.823596 210.165472,197.316404 210.15783,197.92 C210.154009,198.500674 210.066132,199.203596 209.898019,200.017303 C209.596179,201.468989 209.439528,202.194831 209.137689,203.646517 C209.408962,203.172809 210.005,202.362921 210.921981,201.209213 C211.835142,200.063146 212.962264,198.890337 214.291887,197.709888 C215.62533,196.529438 216.702783,195.944944 217.516604,195.956404 C218.876792,195.979326 219.537783,196.865618 219.503396,198.60382 C219.480472,199.78809 219.262689,201.220674 218.857689,202.901573 C218.276934,205.323596 217.990377,206.534607 217.421085,208.960449 C217.333208,209.273708 217.291179,209.606067 217.287358,209.949888 C217.275896,210.606966 217.401981,210.935506 217.669434,210.939326 C217.829906,210.943146 218.028585,210.874382 218.25783,210.733034 C218.487075,210.591685 218.716321,210.415955 218.945566,210.209663 C219.178632,210.003371 219.388774,209.804719 219.579811,209.613708 C219.77467,209.418876 219.950425,209.239326 220.110896,209.086517 C220.210236,208.979551 220.263726,208.922247 220.363066,208.815281 C220.412736,208.815281 220.508255,208.945169 220.649623,209.197303 C220.794811,209.453258 220.882689,209.667191 220.859764,209.739775 C220.718396,210.213483 219.767028,211.053933 218.651368,211.986067 C217.543349,212.910562 216.576698,213.368989 215.751415,213.357528 C215.323491,213.353708 214.994906,213.158876 214.758019,212.776854 C214.524953,212.391011 214.41033,211.894382 214.417972,211.286966 C214.421792,210.866742 214.524953,210.175281 214.727453,209.201124 C215.323491,206.599551 215.621509,205.300674 216.225189,202.699101 C216.427689,201.83573 216.53467,201.121348 216.546132,200.567416 C216.561415,199.436629 216.316887,198.867416 215.797264,198.859775 C214.903208,198.848315 213.49717,200.017303 211.598255,202.382022 C209.695519,204.746742 208.476698,207.279551 207.926509,209.961348 C207.643774,211.195281 207.510047,211.810337 207.231132,213.040449 C206.883443,213.143596 206.466981,213.189438 205.989387,213.185618 C205.507972,213.185618 205.057123,213.135955 204.629198,213.028989 C205.584387,208.165843 206.069623,205.724719 207.051557,200.865393 C207.189104,199.914157 207.261698,199.390787 207.261698,199.28764 C207.265519,198.626742 207.131792,198.298202 206.860519,198.298202 C206.753538,198.298202 206.600708,198.355506 206.40967,198.473933 C206.218632,198.59236 206.023774,198.737528 205.821274,198.924719 C205.618774,199.10809 205.431557,199.27618 205.267264,199.432809 C205.102972,199.589438 204.835519,200.047865 204.617736,200.147191 C204.58717,200.158652 204.457264,200.021124 204.312075,199.768989 C204.163066,199.520674 204.071368,199.306742 204.094292,199.230337 C204.216557,198.798652 205.099151,198.011685 206.149858,197.148315 C207.200566,196.281124 208.07934,195.857079 208.786179,195.860899" id="Fill-20" fill="#FFFFFF" sketch:type="MSShapeGroup"></path>
                <path d="M246.96316,186.482247 C248.724528,186.566292 250.130566,187.242472 250.279575,187.991236 C250.535566,189.25191 249.652972,190.527865 248.667217,190.478202 C248.281321,190.459101 247.929811,190.241348 247.605047,189.828764 C247.284104,189.41618 246.944057,188.999775 246.596368,188.57191 C246.244858,188.147865 245.8475,187.930112 245.411934,187.907191 C244.52934,187.868989 243.558868,188.686517 242.496698,190.367416 C241.438349,192.048315 240.567217,194.416854 239.898585,197.473034 C239.898585,197.507416 239.894764,197.518876 239.894764,197.553258 C239.890943,197.660225 239.936792,197.713708 240.017028,197.717528 C241.889198,197.793933 242.825283,197.835955 244.701274,197.92 C244.835,197.92382 244.888491,198.09191 244.877028,198.408989 C244.857925,198.829213 244.689811,199.264719 244.368868,199.723146 C242.466132,199.635281 241.514764,199.597079 239.612028,199.516854 C239.478302,199.513034 239.394245,199.61618 239.359858,199.826292 C238.274764,204.509888 237.732217,206.855506 236.673868,211.542921 C235.894434,215.175955 234.675613,217.918876 233.009764,219.786966 C231.343915,221.651236 229.574906,222.56427 227.702736,222.510787 C226.774292,222.487865 226.055991,222.293034 225.536368,221.953034 C225.016745,221.613034 224.600283,221.173708 224.531509,220.799326 C224.443632,220.298876 224.68434,219.660899 225.012925,219.194831 C225.34533,218.728764 225.746509,218.503371 226.224104,218.518652 C226.460991,218.522472 226.682594,218.65236 226.888915,218.908315 C227.095236,219.16427 227.270991,219.446966 227.42,219.756404 C227.57283,220.062022 227.790613,220.348539 228.092453,220.608315 C228.390472,220.86427 228.722877,220.997978 229.093491,221.009438 C229.59783,221.024719 230.105991,220.730562 230.629434,220.126966 C231.149057,219.527191 231.607547,218.759326 231.993443,217.834831 C232.386981,216.914157 232.715566,216.039326 232.998302,215.206517 C233.281038,214.373708 233.491179,213.624944 233.617264,212.971685 C234.763491,207.650112 235.340425,204.995056 236.517217,199.677303 C236.521038,199.646742 236.517217,199.62382 236.517217,199.589438 C236.524858,199.459551 236.486651,199.398427 236.406415,199.394607 C235.348066,199.356404 234.820802,199.333483 233.762453,199.299101 C233.708962,199.295281 233.682217,199.257079 233.686038,199.176854 C233.693679,198.94 233.919104,198.60382 234.369953,198.168315 C234.820802,197.736629 235.264009,197.530337 235.699575,197.545618 C236.169528,197.564719 236.406415,197.57236 236.876368,197.591461 C236.990991,197.595281 237.082689,197.473034 237.136179,197.24382 C237.873585,194.141798 239.080943,191.402697 240.979858,189.374157 C242.878774,187.345618 244.877028,186.379101 246.96316,186.482247" id="Fill-21" fill="#FFFFFF" sketch:type="MSShapeGroup"></path>
                <path d="M254.119434,197.297303 C255.72033,197.388989 256.931509,197.996404 257.74533,199.127191 C258.562972,200.257978 258.91066,201.774607 258.796038,203.669438 C258.627925,206.374157 257.48934,208.872584 255.407028,211.164719 C253.328538,213.453034 251.280613,214.549438 249.259434,214.446292 C247.658538,214.362247 246.466462,213.785393 245.675566,212.719551 C244.877028,211.649888 244.53316,210.175281 244.621038,208.280449 C244.747123,205.545169 245.828396,202.993258 247.899245,200.64382 C249.970094,198.294382 252.056226,197.182697 254.119434,197.297303 L254.119434,197.297303 Z M253.538679,198.882697 C252.182311,198.806292 250.894717,199.780449 249.675896,201.786067 C248.460896,203.795506 247.803726,205.835506 247.700566,207.913708 C247.624151,209.441798 247.811368,210.633708 248.266038,211.500899 C248.716887,212.36809 249.316745,212.822697 250.061792,212.860899 C251.399057,212.933483 252.62934,211.963146 253.779387,209.957528 C254.929434,207.95191 255.575142,205.900449 255.701226,203.799326 C255.789104,202.244494 255.636274,201.052584 255.250377,200.212135 C254.864481,199.367865 254.299009,198.924719 253.538679,198.882697 L253.538679,198.882697 Z" id="Fill-22" fill="#FFFFFF" sketch:type="MSShapeGroup"></path>
                <path d="M267.599057,198.156854 C268.030802,198.187416 268.367028,198.401348 268.580991,198.802472 C268.794953,199.203596 268.879009,199.704045 268.83316,200.30764 C268.791132,200.884494 268.657406,201.575955 268.439623,202.378202 C268.080472,203.684719 267.904717,204.337978 267.549387,205.640674 C268.336462,204.139326 269.455943,202.584494 270.923113,200.97618 C272.394104,199.367865 273.597642,198.60382 274.518443,198.676404 C275.443066,198.748989 276.509057,199.417528 276.661887,200.116629 C276.92934,201.339101 275.932123,202.714382 274.931085,202.634157 C274.717123,202.615056 274.487877,202.431685 274.212783,202.080225 C273.941509,201.728764 273.643491,201.545393 273.322547,201.518652 C272.539292,201.457528 271.26316,202.51191 269.547642,204.677978 C267.824481,206.847865 266.701179,208.998652 266.150991,211.126517 C265.726887,212.757753 265.516745,213.575281 265.096462,215.210337 C264.637972,215.25618 264.198585,215.26764 263.774481,215.237079 C263.266321,215.202697 262.773443,215.130112 262.29967,215.023146 C263.579623,210.228764 264.232972,207.833483 265.543491,203.046742 C265.745991,202.110787 265.841509,201.587416 265.849151,201.48427 C265.895,200.827191 265.788019,200.487191 265.516745,200.46809 C265.405943,200.460449 265.253113,200.510112 265.058255,200.613258 C264.863396,200.720225 264.657075,200.857753 264.446934,201.025843 C264.229151,201.197753 264.030472,201.354382 263.858538,201.503371 C263.682783,201.648539 263.384764,202.084045 263.15934,202.17191 C263.128774,202.183371 263.01033,202.030562 262.880425,201.770787 C262.750519,201.511011 262.666462,201.297079 262.693208,201.224494 C262.842217,200.800449 263.778302,200.070787 264.8825,199.27236 C265.986698,198.477753 266.892217,198.103371 267.599057,198.156854" id="Fill-23" fill="#FFFFFF" sketch:type="MSShapeGroup"></path>
                <path d="M286.145,213.002247 C288.361038,205.510787 289.48434,201.770787 291.769151,194.290787 C291.887594,193.904944 291.964009,193.538202 291.994575,193.198202 C292.044245,192.697753 291.230425,192.365393 289.564575,192.208764 C289.480519,192.201124 289.461415,192.117079 289.472877,191.960449 C289.503443,191.643371 289.68684,191.268989 289.877877,191.204045 C291.050849,190.799101 294.19533,190.455281 295.242217,190.623371 C295.35684,190.642472 295.448538,190.971011 295.406509,191.391236 C295.372123,191.704494 295.10467,192.671011 294.585047,194.286966 C292.262028,201.755506 291.115802,205.495506 288.857736,212.979326 C288.746934,213.284944 288.67816,213.613483 288.647594,213.953483 C288.582642,214.606742 288.67816,214.950562 288.949434,214.977303 C289.109906,214.992584 289.304764,214.935281 289.541651,214.813034 C289.778538,214.690787 290.034528,214.541798 290.29434,214.350787 C290.554151,214.163596 290.794858,213.987865 291.001179,213.808315 C291.2075,213.628764 291.547547,213.155056 291.795896,213.071011 C291.841745,213.05573 291.975472,213.21618 292.082453,213.475955 C292.193255,213.739551 292.254387,213.953483 292.227642,214.026067 C292.048066,214.488315 291.031745,215.25618 289.843491,216.092809 C288.659057,216.929438 287.658019,217.311461 286.832736,217.235056 C286.431557,217.196854 286.122075,216.971461 285.908113,216.570337 C285.69033,216.165393 285.617736,215.664944 285.671226,215.061348 C285.713255,214.618202 285.869906,213.926742 286.145,213.002247" id="Fill-24" fill="#FFFFFF" sketch:type="MSShapeGroup"></path>
                <path d="M301.072689,201.159551 C301.508255,201.205393 301.821557,201.434607 302.024057,201.843371 C302.226557,202.248315 302.291509,202.756404 302.222736,203.35618 C302.165425,203.906292 302.016415,204.586292 301.756604,205.40764 C300.660047,208.849663 300.109858,210.572584 299.024764,214.014607 C298.913962,214.320225 298.845189,214.644944 298.806981,214.984944 C298.734387,215.638202 298.829906,215.982022 299.097358,216.012584 C299.254009,216.031685 299.456509,215.978202 299.697217,215.855955 C299.941745,215.741348 300.178632,215.588539 300.430802,215.401348 C300.679151,215.217978 300.919858,215.034607 301.122358,214.862697 C301.3325,214.686966 301.527358,214.526517 301.703113,214.385169 C301.810094,214.285843 301.867406,214.24 301.974387,214.144494 C302.024057,214.148315 302.119575,214.282022 302.238019,214.549438 C302.356462,214.813034 302.421415,215.030787 302.390849,215.103371 C302.203632,215.561798 301.175849,216.314382 299.979953,217.139551 C298.791698,217.964719 297.783019,218.331461 296.957736,218.243596 C296.533632,218.201573 296.22033,217.97618 296.01783,217.575056 C295.822972,217.170112 295.76566,216.665843 295.830613,216.062247 C295.872642,215.645843 296.029292,214.958202 296.31967,214.006966 C297.320708,210.790337 297.817406,209.185843 298.829906,205.969213 C299.047689,205.170787 299.169953,204.655056 299.196698,204.422022 C299.269292,203.764944 299.177594,203.421124 298.906321,203.394382 C298.79934,203.382921 298.642689,203.424944 298.440189,203.52427 C298.233868,203.623596 298.027547,203.749663 297.802123,203.910112 C297.580519,204.074382 297.374198,204.223371 297.198443,204.364719 C297.022689,204.506067 296.854575,204.647416 296.705566,204.792584 C296.617689,204.876629 296.57566,204.922472 296.483962,205.006517 C296.430472,205.002697 296.338774,204.872809 296.216509,204.605393 C296.094245,204.341798 296.021651,204.120225 296.052217,204.04764 C296.22033,203.631236 297.175519,202.935955 298.310283,202.179551 C299.445047,201.426966 300.36967,201.083146 301.072689,201.159551 L301.072689,201.159551 Z M303.158821,193.003371 C303.571462,193.049213 303.903868,193.240225 304.152217,193.587865 C304.404387,193.935506 304.515189,194.317528 304.465519,194.737753 C304.396745,195.36809 304.121651,195.88764 303.644057,196.311685 C303.170283,196.73573 302.616274,196.926742 301.98967,196.857978 C301.554104,196.808315 301.240802,196.605843 301.034481,196.254382 C300.820519,195.899101 300.728821,195.486517 300.778491,195.012809 C300.843443,194.413034 301.103255,193.908764 301.565566,193.50764 C302.024057,193.106517 302.558962,192.938427 303.158821,193.003371 L303.158821,193.003371 Z" id="Fill-25" fill="#FFFFFF" sketch:type="MSShapeGroup"></path>
                <path d="M321.486981,193.087416 C323.236887,193.316629 324.57033,194.103596 324.662028,194.86382 C324.814858,196.139775 323.840566,197.339326 322.862453,197.213258 C322.480377,197.159775 322.144151,196.919101 321.853774,196.483596 C321.567217,196.04809 321.257736,195.604944 320.944434,195.150337 C320.631132,194.699551 320.256698,194.443596 319.824953,194.390112 C318.946179,194.275506 317.910755,195.012809 316.711038,196.602022 C315.518962,198.191236 314.464434,200.483371 313.551274,203.478427 C313.547453,203.508989 313.543632,203.520449 313.539811,203.554831 C313.528349,203.657978 313.570377,203.715281 313.650613,203.722921 C315.518962,203.952135 316.443585,204.070562 318.304292,204.311236 C318.438019,204.326517 318.483868,204.494607 318.44184,204.807865 C318.39217,205.22427 318.18967,205.652135 317.830519,206.08382 C315.939245,205.843146 314.995519,205.720899 313.104245,205.487865 C312.970519,205.472584 312.871179,205.57191 312.821509,205.778202 C311.35816,210.358652 310.628396,212.646966 309.195613,217.235056 C308.121981,220.791685 306.670094,223.435281 304.859057,225.162022 C303.044198,226.888764 301.206415,227.652809 299.338066,227.446517 C298.413443,227.347191 297.714245,227.102697 297.221368,226.720674 C296.728491,226.338652 296.357877,225.864944 296.31967,225.490562 C296.273821,224.982472 296.556557,224.359775 296.92717,223.92427 C297.293962,223.484944 297.718066,223.297753 298.19184,223.347416 C298.424906,223.374157 298.635047,223.519326 298.818443,223.786742 C299.00566,224.061798 299.166132,224.359775 299.288396,224.680674 C299.414481,224.997753 299.605519,225.29573 299.884434,225.578427 C300.159528,225.861124 300.488113,226.017753 300.858726,226.059775 C301.359245,226.113258 301.886509,225.864944 302.459623,225.307191 C303.028915,224.749438 303.544717,224.023596 304.007028,223.137303 C304.47316,222.247191 304.881981,221.402921 305.225849,220.596854 C305.573538,219.790787 305.840991,219.053483 306.016745,218.411685 C307.590896,213.200899 308.397075,210.603146 309.997972,205.4 C310.001792,205.365618 310.001792,205.346517 310.001792,205.315955 C310.017075,205.182247 309.99033,205.113483 309.906274,205.102022 C308.855566,204.979775 308.324481,204.918652 307.273774,204.796404 C307.220283,204.792584 307.193538,204.754382 307.201179,204.674157 C307.227925,204.441124 307.480094,204.124045 307.96533,203.730562 C308.450566,203.337079 308.912877,203.161348 309.348443,203.211011 C309.818396,203.264494 310.055283,203.295056 310.525236,203.348539 C310.639858,203.36382 310.731557,203.249213 310.804151,203.02382 C311.789906,199.986742 313.215047,197.358427 315.270613,195.486517 C317.326179,193.618427 319.408491,192.82 321.486981,193.087416" id="Fill-26" fill="#FFFFFF" sketch:type="MSShapeGroup"></path>
                <path d="M327.928774,204.471685 C329.166698,204.643596 330.026368,205.082921 330.4925,205.774382 C330.958632,206.465843 331.134387,207.168764 331.027406,207.898427 C330.863113,209.048315 330.095142,210.098876 328.731132,211.050112 C327.367123,212.005169 325.93434,212.688989 324.421321,213.109213 C322.904481,213.529438 321.700943,213.674607 320.818349,213.56 C320.715189,213.544719 320.608208,213.995506 320.489764,214.908539 C320.333113,216.085169 320.447736,217.013483 320.829811,217.689663 C321.215708,218.365843 321.804104,218.755506 322.602642,218.866292 C322.816604,218.893034 323.026745,218.889213 323.229245,218.862472 C323.435566,218.839551 323.634245,218.801348 323.832925,218.747865 C324.023962,218.694382 324.230283,218.637079 324.428962,218.572135 C324.627642,218.507191 324.818679,218.415506 324.998255,218.308539 C325.174009,218.197753 325.334481,218.106067 325.494953,218.022022 C325.651604,217.937978 325.808255,217.842472 325.945802,217.743146 C326.079528,217.64382 326.186509,217.559775 326.262925,217.487191 C326.33934,217.418427 326.411934,217.361124 326.473066,217.315281 C326.530377,217.277079 326.54566,217.257978 326.602972,217.219775 C326.656462,217.227416 326.74816,217.357303 326.858962,217.624719 C326.969764,217.892135 327.027075,218.113708 327.00033,218.186292 C326.786368,218.682921 325.689811,219.424045 324.451887,220.18427 C323.210142,220.944494 322.048632,221.257753 320.963538,221.116404 C319.580425,220.929213 318.598491,220.264494 318.006274,219.110787 C317.410236,217.960899 317.23066,216.45573 317.471368,214.599101 C317.792311,212.093034 319.095189,209.697753 321.395283,207.43618 C323.691557,205.174607 325.873208,204.188989 327.928774,204.471685 L327.928774,204.471685 Z M327.294528,206.026517 C326.026038,205.850787 324.715519,206.568989 323.366792,208.181124 C322.014245,209.793258 321.28066,211.080674 321.150755,212.051011 C321.139292,212.154157 321.181321,212.215281 321.288302,212.230562 C322.247311,212.356629 323.580755,211.898202 325.292453,210.855281 C327.007972,209.81236 327.966981,208.639551 328.146557,207.336854 C328.253538,206.553708 327.966981,206.118202 327.294528,206.026517 L327.294528,206.026517 Z" id="Fill-27" fill="#FFFFFF" sketch:type="MSShapeGroup"></path>
            </g>
        </g>
    </g>
</svg>